<svg width="37" height="36" viewBox="0 0 37 36" fill="none" xmlns="http://www.w3.org/2000/svg">
<rect x="0.952637" width="36" height="36" rx="8" fill="black"/>
<rect x="0.952637" width="36" height="36" rx="8" fill="#F8AF41"/>
<path fill-rule="evenodd" clip-rule="evenodd" d="M9.95264 18C9.95264 14.4049 9.95264 12.6073 10.8093 11.3126C11.1919 10.7344 11.687 10.2392 12.2652 9.85669C13.5599 9 15.3575 9 18.9526 9C22.5478 9 24.3453 9 25.6401 9.85669C26.2182 10.2392 26.7134 10.7344 27.0959 11.3126C27.9526 12.6073 27.9526 14.4049 27.9526 18C27.9526 21.5951 27.9526 23.3927 27.0959 24.6874C26.7134 25.2656 26.2182 25.7608 25.6401 26.1433C24.3453 27 22.5478 27 18.9526 27C15.3575 27 13.5599 27 12.2652 26.1433C11.687 25.7608 11.1919 25.2656 10.8093 24.6874C9.95264 23.3927 9.95264 21.5951 9.95264 18ZM23.6119 17.9994C23.6119 20.5728 21.5258 22.6588 18.9525 22.6588C16.3792 22.6588 14.2931 20.5728 14.2931 17.9994C14.2931 15.4261 16.3792 13.34 18.9525 13.34C21.5258 13.34 23.6119 15.4261 23.6119 17.9994ZM18.9525 21.0824C20.6552 21.0824 22.0355 19.7021 22.0355 17.9994C22.0355 16.2967 20.6552 14.9164 18.9525 14.9164C17.2498 14.9164 15.8695 16.2967 15.8695 17.9994C15.8695 19.7021 17.2498 21.0824 18.9525 21.0824ZM23.7959 14.2015C24.4006 14.2015 24.8907 13.7114 24.8907 13.1067C24.8907 12.5021 24.4006 12.0119 23.7959 12.0119C23.1913 12.0119 22.7011 12.5021 22.7011 13.1067C22.7011 13.7114 23.1913 14.2015 23.7959 14.2015Z" fill="black"/>
</svg>
