<svg width="37" height="36" viewBox="0 0 37 36" fill="none" xmlns="http://www.w3.org/2000/svg">
<rect x="0.952637" width="36" height="36" rx="8" fill="black"/>
<rect x="0.952637" width="36" height="36" rx="8" fill="#F8AF41"/>
<path d="M9.95264 11.4191C9.95264 10.8419 10.1553 10.3657 10.5607 9.9905C10.9661 9.61532 11.4932 9.42773 12.1418 9.42773C12.7789 9.42773 13.2943 9.61243 13.6882 9.98185C14.0936 10.3628 14.2963 10.8592 14.2963 11.471C14.2963 12.0251 14.0994 12.4869 13.7055 12.8563C13.3001 13.2373 12.7673 13.4277 12.1071 13.4277H12.0897C11.4526 13.4277 10.9372 13.2373 10.5434 12.8563C10.1495 12.4754 9.95264 11.9963 9.95264 11.4191ZM10.1785 26.5706V15.0035H14.0356V26.5706H10.1785ZM16.1727 26.5706H20.0299V20.1117C20.0299 19.7077 20.0762 19.396 20.1689 19.1766C20.331 18.7841 20.5772 18.4523 20.9073 18.181C21.2374 17.9097 21.6515 17.7741 22.1495 17.7741C23.4469 17.7741 24.0955 18.6456 24.0955 20.3888V26.5706H27.9526V19.9386C27.9526 18.23 27.5472 16.9342 26.7364 16.0511C25.9256 15.168 24.8542 14.7264 23.5221 14.7264C22.0279 14.7264 20.8638 15.3671 20.0299 16.6485V16.6831H20.0125L20.0299 16.6485V15.0035H16.1727C16.1959 15.3729 16.2075 16.5215 16.2075 18.4494C16.2075 20.3772 16.1959 23.0843 16.1727 26.5706Z" fill="black"/>
</svg>
