<svg width="143" height="60" viewBox="0 0 143 60" fill="none" xmlns="http://www.w3.org/2000/svg">
<path d="M66.9771 16.0662H79.3326C85.8459 16.0662 88.1295 20.8347 88.1295 24.2593C88.1295 30.0678 84.2342 32.7876 78.728 32.7876H74.362V40.0402H66.9763V16.0662H66.9771ZM74.3628 27.0794H77.2166C79.1313 27.0794 81.1471 26.9454 81.1471 24.5279C81.1471 22.3453 79.4673 22.2114 77.6551 22.2114H74.3636V27.0794H74.3628Z" fill="#231F20"/>
<path d="M101.769 15.4961C109.056 15.4961 113.924 20.7337 113.924 28.0536C113.924 35.3728 109.056 40.6119 101.769 40.6119C94.4832 40.6119 89.6152 35.3728 89.6152 28.0536C89.6152 20.7337 94.4832 15.4961 101.769 15.4961ZM101.769 34.6343C103.65 34.6343 106.537 33.3915 106.537 28.0536C106.537 22.715 103.65 21.473 101.769 21.473C99.8907 21.473 97.0017 22.715 97.0017 28.0536C97.0017 33.3915 99.8899 34.6343 101.769 34.6343Z" fill="#231F20"/>
<path d="M116.784 16.0669H128.905C136.897 16.0669 139.717 21.9764 139.717 28.0198C139.717 35.3727 135.822 40.0401 127.462 40.0401H116.784V16.0669H116.784ZM124.169 33.8957H127.058C131.659 33.8957 132.328 30.1688 132.328 27.9196C132.328 26.4082 131.859 22.2114 126.521 22.2114H124.169V33.8957Z" fill="#231F20"/>
<path d="M3.76587 30.0002C3.76587 14.8019 16.0853 2.48169 31.2852 2.48169C46.4826 2.48091 58.8029 14.8011 58.8029 30.0002C58.8029 45.1984 46.4826 57.5195 31.2844 57.5195C16.0861 57.5195 3.76587 45.1977 3.76587 30.0002Z" fill="#F8AF41"/>
<path d="M31.2045 39.9343H31.051C30.6539 39.9343 30.3313 40.257 30.3313 40.6548V53.4144C30.3313 53.8114 30.6539 54.1341 31.051 54.1341H31.2045C31.6023 54.1341 31.925 53.8114 31.925 53.4144V40.654C31.925 40.257 31.6023 39.9343 31.2045 39.9343Z" fill="#231F20"/>
<path d="M28.631 40.08L28.4979 40.004C28.1541 39.8028 27.7132 39.9218 27.5151 40.2656L20.1599 53.0056C19.9602 53.3494 20.0784 53.788 20.4222 53.9877L20.5569 54.066C20.9015 54.2649 21.3401 54.1474 21.5406 53.8021L28.8957 41.0621C29.0939 40.7198 28.9764 40.2781 28.631 40.08Z" fill="#231F20"/>
<path d="M41.9585 53.9876C42.3015 53.7879 42.4198 53.3502 42.2201 53.0056L34.8657 40.264C34.6683 39.921 34.2274 39.8028 33.8813 40.0024L33.7481 40.08C33.4051 40.2781 33.2869 40.719 33.485 41.0636L40.841 53.802C41.0407 54.1458 41.4784 54.2633 41.823 54.0659L41.9585 53.9876Z" fill="#231F20"/>
<path d="M28.3319 39.8052H33.9235C34.1498 39.8052 34.333 39.6227 34.333 39.3972V38.4073C34.333 38.1818 34.1498 37.9993 33.9235 37.9993H33.8757V36.5904C33.8757 36.1174 33.492 35.7321 33.0158 35.7321H31.809V33.6051H32.8318C33.0205 33.6051 33.174 33.4532 33.1748 33.2637L35.8782 34.3311L35.868 34.3514C35.8226 34.4658 35.8782 34.5966 35.9933 34.6428L37.6418 35.2928C37.7561 35.3382 37.8869 35.2818 37.9315 35.1659L38.1304 34.6647C38.1767 34.5496 38.1187 34.4196 38.0036 34.3742L36.3559 33.7226C36.2407 33.6787 36.1123 33.7351 36.0653 33.8495L36.0559 33.8714L33.1748 32.7335V32.4273C33.1748 32.237 33.0213 32.0835 32.8318 32.0835H29.415C29.2262 32.0835 29.072 32.237 29.072 32.4273V33.2598C29.072 33.4501 29.2254 33.6036 29.415 33.6036H30.4456V35.7305H29.2388C28.765 35.7305 28.3797 36.1151 28.3797 36.5889V37.9977H28.3319C28.1056 37.9977 27.9231 38.1794 27.9231 38.4057V39.3956C27.9231 39.6219 28.1056 39.8052 28.3319 39.8052Z" fill="#231F20"/>
<path d="M29.8191 36.5896H30.3039C30.56 36.5896 30.6493 36.7768 30.6493 36.9107C30.6493 37.1378 30.4966 37.2443 30.2796 37.2443H30.1081V37.5301H29.8184V36.5896H29.8191ZM30.1089 37.0211H30.2217C30.2969 37.0211 30.376 37.0164 30.376 36.9216C30.376 36.8355 30.3094 36.8308 30.2389 36.8308H30.1089V37.0211Z" fill="#F8AF41"/>
<path d="M31.2357 36.5676C31.5216 36.5676 31.7126 36.7728 31.7126 37.0602C31.7126 37.3468 31.5216 37.552 31.2357 37.552C30.9499 37.552 30.7588 37.3468 30.7588 37.0602C30.7588 36.772 30.9499 36.5676 31.2357 36.5676ZM31.2357 37.3179C31.3101 37.3179 31.4229 37.2685 31.4229 37.0602C31.4229 36.8503 31.3093 36.8018 31.2357 36.8018C31.1621 36.8018 31.0486 36.8511 31.0486 37.0602C31.0486 37.2685 31.1629 37.3179 31.2357 37.3179Z" fill="#F8AF41"/>
<path d="M31.8765 36.5896H32.351C32.6643 36.5896 32.7763 36.8214 32.7763 37.0571C32.7763 37.3469 32.6228 37.5301 32.2947 37.5301H31.8765V36.5896ZM32.1654 37.2889H32.279C32.4599 37.2889 32.4865 37.1425 32.4865 37.054C32.4865 36.9953 32.4685 36.8308 32.2586 36.8308H32.1662V37.2889H32.1654Z" fill="#F8AF41"/>
<path d="M43.0485 8.85577C44.2686 10.7619 44.9601 13.813 42.2411 16.1428C41.6671 16.6362 40.6748 17.0317 39.8071 17.2705C38.9237 16.1961 37.1437 15.3096 35.4059 14.7997C33.7097 14.3032 32.1841 15.1498 30.7987 16.117C30.2192 16.5203 29.5301 16.9361 29.039 17.222C28.8354 17.265 28.6271 17.3207 28.4165 17.3911C27.8456 17.5822 27.6748 17.3974 27.6177 17.1061C27.6004 16.7114 27.5378 16.33 27.4078 16.0136C27.1971 15.207 26.616 14.5069 25.5901 14.1161C25.0576 13.9132 24.3191 13.8302 23.6386 14.2594C22.9643 14.6838 22.5892 15.055 21.9658 15.7434C21.3824 16.3911 21.1059 16.395 20.8256 16.3684C20.5374 16.3425 20.1802 15.929 20.1802 15.929C20.1802 15.929 19.8552 16.6049 20.6752 17.37C21.1083 17.7757 21.8162 17.5274 21.8162 17.5274C21.8162 17.5274 21.7684 18.0035 21.7183 18.1202C21.669 18.2361 21.4912 18.4296 21.3792 18.5987C21.2759 18.7538 21.239 18.7788 21.2782 18.872C21.3354 19.013 21.4293 19.0381 21.4293 19.0381C21.4293 19.0381 21.3322 19.2699 21.3236 19.3599C21.3127 19.4484 21.2062 19.84 21.6196 20.0624C22.1248 20.3365 22.7599 20.0655 22.8648 20.0295C22.8648 20.0295 22.7716 20.349 22.5398 20.5166C22.2759 20.7069 22.1075 20.696 22.1075 20.696C22.1075 20.696 23.4874 21.295 24.76 20.5824C25.1931 20.3404 25.4343 20.0843 25.4343 20.0843C25.4343 20.0843 25.4343 20.2143 25.4546 20.425C25.4523 20.5205 25.4719 20.6693 25.5134 20.8534C25.5682 21.1744 25.663 21.5605 25.8243 21.9497C26.0984 22.7705 26.4688 23.6781 26.7499 24.0971C26.981 24.3657 27.2598 24.5529 27.5331 24.744C27.9231 25.1097 28.0672 25.2749 28.3781 25.82C28.3781 25.82 29.0093 27.2516 29.2951 28.0543C29.8974 29.7349 29.8668 30.3637 29.8136 30.7576C29.7658 31.1085 29.711 31.3489 29.4729 31.3732C29.234 31.3975 28.6569 31.3888 28.5237 31.5196C28.2637 31.782 28.216 32.3952 28.4674 32.4422C28.5645 32.4578 28.8722 32.273 28.9459 32.2252C29.05 32.1579 29.1354 32.096 29.2145 32.0498C29.1761 32.1195 29.1362 32.19 29.0986 32.2605C29.198 32.2409 29.3437 32.1994 29.6507 32.1994C30.2803 32.1994 31 32.1532 31.7557 32.1963C33.5742 32.2996 33.3659 32.0122 33.459 31.9041C33.553 31.7945 33.0205 31.1782 33.0205 31.1782C32.9085 30.4726 33.4144 28.976 33.8663 28.3683C34.3972 27.6541 34.694 26.286 34.5327 25.5608C34.4834 25.3407 34.6987 25.2303 34.8554 25.1371C36.0434 24.4331 38.2189 22.6992 39.3921 21.1572C40.0679 20.2723 40.3616 19.6857 40.3835 18.8188C40.526 18.6355 40.8307 18.3841 41.2269 18.1719C42.451 17.5149 43.527 16.7685 44.3328 15.3652C45.3877 13.5287 45.8067 9.99445 42.5951 6.99505C42.5951 6.99505 39.7531 4.39348 35.4968 4.74746L35.9283 5.43035C35.9291 5.43113 40.8056 5.35047 43.0485 8.85577ZM22.6158 18.1891C22.4106 18.175 22.2563 17.9973 22.2696 17.7929C22.2822 17.5869 22.4584 17.4326 22.6651 17.4452C22.8703 17.4593 23.0269 17.6363 23.0113 17.8414C22.9987 18.0458 22.8218 18.2025 22.6158 18.1891ZM32.4167 25.0369C32.1395 26.051 32.0275 26.6736 31.9578 27.6C31.8881 28.5249 31.9084 29.5383 31.9413 30.1484C31.9719 30.7075 32.2444 30.9464 31.7416 31.0035C31.5192 31.0294 31.0869 31.1453 30.6492 31.2518C30.7698 30.9761 31 30.5846 30.7643 29.7349C30.5254 28.8773 30.2451 26.6728 30.2451 26.1246C30.2451 25.6453 30.7862 24.8442 30.9193 24.6555C30.9225 24.6547 30.9256 24.6539 30.9256 24.6539C30.9256 24.6539 30.9256 24.6539 30.9225 24.6523C30.9389 24.6281 30.9483 24.614 30.9483 24.614C30.9483 24.614 30.9256 24.6226 30.8865 24.6335C30.6742 24.5247 29.7259 23.9867 31.0063 23.6264C32.5091 23.2028 33.7856 21.9028 34.5116 21.021C34.1412 21.6083 32.9077 23.2505 32.4167 25.0369ZM35.1185 20.2151C35.1428 20.1822 35.1553 20.1611 35.1553 20.1611L35.1577 20.1728C35.1451 20.1877 35.1318 20.2018 35.1185 20.2151Z" fill="#231F20"/>
<path fill-rule="evenodd" clip-rule="evenodd" d="M36.1649 5.06445C38.5307 5.06445 40.4494 6.98391 40.4494 9.34897C40.4494 11.7148 38.5307 13.6335 36.1649 13.6335C33.799 13.6335 31.8804 11.7156 31.8804 9.34897C31.8812 6.98391 33.799 5.06445 36.1649 5.06445Z" fill="#231F20"/>
<path fill-rule="evenodd" clip-rule="evenodd" d="M36.1649 5.47485C38.3036 5.47485 40.0383 7.21106 40.0383 9.34901C40.0383 11.4885 38.3036 13.2232 36.1649 13.2232C34.0261 13.2232 32.2915 11.4885 32.2915 9.34901C32.2915 7.21106 34.0261 5.47485 36.1649 5.47485Z" fill="#F8AF41"/>
<path fill-rule="evenodd" clip-rule="evenodd" d="M36.1648 4.70898C38.7272 4.70898 40.8057 6.78663 40.8057 9.34983C40.8057 11.913 38.728 13.9915 36.1648 13.9915C33.6016 13.9915 31.5232 11.913 31.5232 9.34983C31.524 6.78663 33.6024 4.70898 36.1648 4.70898ZM36.1648 5.16712C38.4743 5.16712 40.3475 7.04037 40.3475 9.34983C40.3475 11.6593 38.4743 13.5318 36.1648 13.5318C33.8546 13.5318 31.9821 11.6593 31.9821 9.34983C31.9821 7.04037 33.8546 5.16712 36.1648 5.16712Z" fill="#231F20"/>
<path fill-rule="evenodd" clip-rule="evenodd" d="M36.1648 5.86963C38.0866 5.86963 39.6443 7.42728 39.6443 9.34909C39.6443 11.2709 38.0866 12.8293 36.1648 12.8293C34.243 12.8293 32.6846 11.2709 32.6846 9.34909C32.6846 7.42728 34.243 5.86963 36.1648 5.86963ZM36.1648 7.19312C37.356 7.19312 38.3208 8.15951 38.3208 9.34909C38.3208 10.5402 37.356 11.5058 36.1648 11.5058C34.9745 11.5058 34.0088 10.5402 34.0088 9.34909C34.0088 8.15951 34.9752 7.19312 36.1648 7.19312Z" fill="#231F20"/>
<path fill-rule="evenodd" clip-rule="evenodd" d="M36.1648 7.65674C37.0991 7.65674 37.8572 8.41403 37.8572 9.34909C37.8572 10.2841 37.0991 11.0414 36.1648 11.0414C35.2298 11.0414 34.4717 10.2841 34.4717 9.34909C34.4717 8.41403 35.2298 7.65674 36.1648 7.65674Z" fill="#231F20"/>
<path fill-rule="evenodd" clip-rule="evenodd" d="M35.1594 7.8252C35.446 7.8252 35.677 8.057 35.677 8.34363C35.677 8.63104 35.446 8.86285 35.1594 8.86285C34.8727 8.86285 34.6401 8.63104 34.6401 8.34363C34.6401 8.05622 34.8727 7.8252 35.1594 7.8252Z" fill="#F8AF41"/>
<path fill-rule="evenodd" clip-rule="evenodd" d="M34.8994 7.8252C35.0435 7.8252 35.1594 7.94188 35.1594 8.0852C35.1594 8.22851 35.0435 8.34363 34.8994 8.34363C34.756 8.34363 34.6401 8.22851 34.6401 8.0852C34.6401 7.94188 34.756 7.8252 34.8994 7.8252Z" fill="#231F20"/>
<path d="M41.9452 54.0104L41.863 54.0598C41.6508 54.1827 41.5779 54.4537 41.7001 54.6683L42.076 55.3214C42.3814 55.1922 42.6822 55.0543 42.9813 54.9142L42.5537 54.1749C42.4308 53.9603 42.1582 53.889 41.9452 54.0104Z" fill="#231F20"/>
<path d="M20.4145 54.0807C20.1803 53.9445 19.896 53.9954 19.7801 54.1958L19.4128 54.8325C19.7096 54.9743 20.0112 55.1105 20.3134 55.2413L20.633 54.6876C20.7496 54.4895 20.6518 54.2178 20.4145 54.0807Z" fill="#231F20"/>
<path d="M31.1286 54.1904C30.8569 54.1904 30.6353 54.4128 30.6353 54.6854V57.5101C30.8514 57.5164 31.0675 57.5195 31.2853 57.5195C31.398 57.5195 31.51 57.5164 31.622 57.5148V54.6854C31.622 54.4128 31.4012 54.1904 31.1286 54.1904Z" fill="#231F20"/>
</svg>
