<svg width="37" height="36" viewBox="0 0 37 36" fill="none" xmlns="http://www.w3.org/2000/svg">
<rect x="0.952637" width="36" height="36" rx="8" fill="black"/>
<rect x="0.952637" width="36" height="36" rx="8" fill="#F8AF41"/>
<path d="M21.9797 10.7005V10.6973H22.8237L23.1321 10.7589C23.3377 10.7988 23.5243 10.8512 23.692 10.9161C23.8598 10.9809 24.0221 11.0566 24.179 11.143C24.3359 11.2294 24.4782 11.3175 24.6059 11.4072C24.7325 11.4958 24.8461 11.5898 24.9467 11.6892C25.0462 11.7897 25.2015 11.8156 25.4125 11.767C25.6235 11.7184 25.8507 11.6509 26.0942 11.5644C26.3377 11.478 26.5784 11.3807 26.8165 11.2727C27.0545 11.1646 27.1995 11.096 27.2515 11.0668C27.3023 11.0366 27.3294 11.0204 27.3326 11.0182L27.3359 11.0133L27.3521 11.0052L27.3683 10.9971L27.3846 10.989L27.4008 10.9809L27.404 10.9761L27.4089 10.9728L27.4138 10.9696L27.417 10.9647L27.4333 10.9598L27.4495 10.9566L27.4463 10.9809L27.4414 11.0052L27.4333 11.0295L27.4251 11.0539L27.417 11.0701L27.4089 11.0863L27.4008 11.1106C27.3954 11.1268 27.39 11.1484 27.3846 11.1754C27.3792 11.2024 27.3277 11.3105 27.2304 11.4996C27.133 11.6887 27.0112 11.8805 26.8652 12.075C26.7191 12.2695 26.5882 12.4164 26.4724 12.5158C26.3555 12.6163 26.2782 12.6866 26.2403 12.7266C26.2024 12.7676 26.1564 12.8054 26.1023 12.84L26.0212 12.8935L26.0049 12.9016L25.9887 12.9097L25.9855 12.9146L25.9806 12.9178L25.9757 12.9211L25.9725 12.9259L25.9562 12.934L25.94 12.9421L25.9368 12.947L25.9319 12.9502L25.927 12.9535L25.9238 12.9583L25.9206 12.9632L25.9157 12.9664L25.9108 12.9697L25.9076 12.9745H25.9887L26.4432 12.8773C26.7461 12.8125 27.0356 12.7341 27.3115 12.6423L27.7498 12.4964L27.7984 12.4802L27.8228 12.4721L27.839 12.464L27.8553 12.4559L27.8715 12.4478L27.8877 12.4397L27.9202 12.4348L27.9526 12.4316V12.464L27.9445 12.4672L27.9364 12.4721L27.9332 12.4769L27.9283 12.4802L27.9234 12.4834L27.9202 12.4883L27.9169 12.4932L27.9121 12.4964L27.9072 12.4996L27.9039 12.5045L27.9007 12.5094L27.8958 12.5126L27.8877 12.5288L27.8796 12.545L27.8747 12.5483C27.8726 12.5515 27.8039 12.6433 27.6686 12.8238C27.5333 13.0053 27.4603 13.0972 27.4495 13.0994C27.4387 13.1026 27.4235 13.1188 27.404 13.148C27.3856 13.1782 27.2709 13.2987 27.0599 13.5094C26.8489 13.7201 26.6423 13.9076 26.4399 14.0719C26.2365 14.2372 26.1337 14.4403 26.1316 14.6813C26.1283 14.9212 26.1159 15.1924 26.0942 15.495C26.0726 15.7975 26.032 16.1244 25.9725 16.4756C25.913 16.8268 25.821 17.2239 25.6966 17.6669C25.5721 18.1099 25.4206 18.5421 25.2421 18.9636C25.0635 19.385 24.8769 19.7632 24.6821 20.0981C24.4874 20.4331 24.3088 20.7168 24.1465 20.9491C23.9842 21.1814 23.8192 21.4002 23.6515 21.6055C23.4838 21.8108 23.2717 22.0421 23.0152 22.2992C22.7577 22.5553 22.617 22.6958 22.5932 22.7207C22.5683 22.7444 22.4623 22.8331 22.2751 22.9865C22.089 23.141 21.8888 23.2955 21.6745 23.45C21.4614 23.6035 21.2655 23.7315 21.087 23.8342C20.9085 23.9368 20.6931 24.0541 20.441 24.1859C20.19 24.3188 19.9184 24.442 19.6262 24.5555C19.3341 24.6689 19.0257 24.7743 18.7011 24.8715C18.3764 24.9688 18.0627 25.0444 17.7597 25.0984C17.4567 25.1525 17.1131 25.1984 16.729 25.2362L16.1528 25.2929V25.301H15.0978V25.2929L14.9599 25.2848C14.8679 25.2794 14.7921 25.274 14.7326 25.2686C14.6731 25.2632 14.4486 25.2335 14.059 25.1795C13.6695 25.1255 13.3638 25.0714 13.142 25.0174C12.9202 24.9634 12.5901 24.8607 12.1519 24.7094C11.7137 24.5582 11.3388 24.4053 11.0271 24.2507C10.7166 24.0973 10.5218 24 10.4428 23.959C10.3649 23.919 10.2773 23.8693 10.1799 23.8099L10.0338 23.7207L10.0306 23.7159L10.0257 23.7126L10.0208 23.7094L10.0176 23.7045L10.0013 23.6964L9.9851 23.6883L9.98187 23.6834L9.97698 23.6802L9.97211 23.677L9.96887 23.6721L9.96564 23.6672L9.96075 23.664H9.95264V23.6316L9.96887 23.6348L9.9851 23.6397L10.0581 23.6478C10.1068 23.6532 10.2394 23.6613 10.4558 23.6721C10.6722 23.6829 10.9021 23.6829 11.1456 23.6721C11.3891 23.6613 11.6379 23.637 11.8922 23.5992C12.1465 23.5613 12.4468 23.4965 12.793 23.4047C13.1393 23.3128 13.4574 23.2037 13.7474 23.0772C14.0363 22.9498 14.2419 22.8547 14.3642 22.792C14.4854 22.7304 14.6704 22.6158 14.9193 22.4484L15.2926 22.1971L15.2958 22.1923L15.3007 22.189L15.3056 22.1858L15.3088 22.1809L15.3121 22.1761L15.3169 22.1728L15.3218 22.1696L15.325 22.1647L15.3413 22.1599L15.3575 22.1566L15.3608 22.1404L15.3656 22.1242L15.3705 22.121L15.3737 22.1161L15.2439 22.108C15.1573 22.1026 15.0735 22.0972 14.9923 22.0918C14.9112 22.0864 14.784 22.0621 14.6109 22.0188C14.4378 21.9756 14.2511 21.9108 14.0509 21.8243C13.8507 21.7379 13.656 21.6352 13.4666 21.5164C13.2773 21.3975 13.1404 21.2986 13.056 21.2198C12.9727 21.1419 12.8644 21.0317 12.7314 20.8891C12.5994 20.7454 12.4846 20.5979 12.3873 20.4466C12.2899 20.2954 12.1968 20.1208 12.1081 19.9231L11.9734 19.6281L11.9653 19.6038L11.9571 19.5795L11.9523 19.5633L11.949 19.5471L11.9734 19.5503L11.9977 19.5552L12.1763 19.5795C12.2953 19.5957 12.482 19.6011 12.7362 19.5957C12.9905 19.5903 13.1663 19.5795 13.2637 19.5633C13.3611 19.5471 13.4206 19.5362 13.4423 19.5308L13.4747 19.5227L13.5153 19.5146L13.5559 19.5065L13.5591 19.5017L13.564 19.4984L13.5689 19.4952L13.5721 19.4903L13.5397 19.4822L13.5072 19.4741L13.4747 19.466L13.4423 19.4579L13.4098 19.4498C13.3882 19.4444 13.3503 19.4336 13.2962 19.4174C13.2421 19.4012 13.096 19.3417 12.858 19.2391C12.6199 19.1364 12.4306 19.0365 12.2899 18.9392C12.1489 18.8417 12.0144 18.735 11.8874 18.6199C11.7608 18.5032 11.6217 18.353 11.4702 18.1693C11.3187 17.9857 11.1835 17.7722 11.0644 17.5291C10.9454 17.286 10.8562 17.0537 10.7966 16.8321C10.7374 16.6119 10.6983 16.3868 10.6798 16.1595L10.6506 15.8191L10.6668 15.8224L10.683 15.8272L10.6993 15.8353L10.7155 15.8434L10.7317 15.8515L10.7479 15.8596L10.9995 15.9731C11.1673 16.0487 11.3755 16.1136 11.6244 16.1676C11.8733 16.2216 12.0221 16.2514 12.0708 16.2567L12.1438 16.2649H12.2899L12.2866 16.26L12.2818 16.2567L12.2769 16.2535L12.2736 16.2486L12.2704 16.2438L12.2655 16.2405L12.2607 16.2373L12.2574 16.2324L12.2412 16.2243L12.225 16.2162L12.2217 16.2114L12.2168 16.2081L12.212 16.2049L12.2087 16.2L12.1925 16.1919L12.1763 16.1838L12.173 16.1789C12.1698 16.1768 12.1233 16.1422 12.0334 16.0752C11.9447 16.0071 11.8516 15.9191 11.7543 15.811C11.6569 15.703 11.5595 15.5895 11.4621 15.4706C11.3645 15.3515 11.2776 15.2241 11.2024 15.0897C11.1267 14.9547 11.0466 14.7829 10.9622 14.5743C10.8789 14.3668 10.8156 14.1578 10.7723 13.9471C10.729 13.7363 10.7047 13.5283 10.6993 13.323C10.6939 13.1177 10.6993 12.9421 10.7155 12.7963C10.7317 12.6504 10.7642 12.4856 10.8129 12.3019C10.8616 12.1182 10.9319 11.9237 11.0239 11.7184L11.1618 11.4104L11.1699 11.3861L11.1781 11.3618L11.183 11.3586L11.1862 11.3537L11.1894 11.3488L11.1943 11.3456L11.1992 11.3488L11.2024 11.3537L11.2057 11.3586L11.2105 11.3618L11.2154 11.3651L11.2186 11.3699L11.2219 11.3748L11.2268 11.378L11.2349 11.3942L11.243 11.4104L11.2479 11.4137L11.2511 11.4185L11.4702 11.6617C11.6163 11.8238 11.7894 12.0047 11.9896 12.2046C12.1898 12.4045 12.3007 12.5083 12.3223 12.5158C12.344 12.5245 12.371 12.5493 12.4035 12.5904C12.436 12.6304 12.5442 12.726 12.7281 12.8773C12.9121 13.0286 13.1528 13.2042 13.4504 13.4041C13.748 13.604 14.078 13.8012 14.4405 13.9957C14.803 14.1902 15.1925 14.3658 15.6091 14.5224C16.0257 14.6791 16.3178 14.7818 16.4855 14.8304C16.6533 14.879 16.94 14.9412 17.3458 15.0168C17.7516 15.0925 18.0572 15.1411 18.2628 15.1627C18.4684 15.1843 18.6091 15.1967 18.6848 15.2L18.7984 15.2032L18.7952 15.1789L18.7903 15.1546L18.7579 14.952C18.7362 14.8169 18.7254 14.6278 18.7254 14.3847C18.7254 14.1416 18.7443 13.9173 18.7822 13.712C18.8201 13.5067 18.8769 13.2987 18.9526 13.088C19.0284 12.8773 19.1025 12.7082 19.175 12.5807C19.2486 12.4543 19.3449 12.31 19.4639 12.1479C19.5829 11.9858 19.7371 11.8184 19.9265 11.6455C20.1159 11.4726 20.3323 11.3186 20.5757 11.1835C20.8192 11.0485 21.0437 10.9458 21.2493 10.8756C21.4549 10.8053 21.628 10.7594 21.7687 10.7378C21.9094 10.7162 21.9797 10.7037 21.9797 10.7005Z" fill="black"/>
</svg>
