<svg width="37" height="36" viewBox="0 0 37 36" fill="none" xmlns="http://www.w3.org/2000/svg">
<rect x="0.952637" width="36" height="36" rx="8" fill="black"/>
<rect x="0.952637" width="36" height="36" rx="8" fill="#F8AF41"/>
<path d="M19.3914 24.9802L15.3292 24.9042C14.014 24.8778 12.6954 24.9306 11.406 24.6565C9.44441 24.247 9.30544 22.2391 9.16003 20.5549C8.95967 18.187 9.03723 15.7762 9.41534 13.4281C9.6288 12.1106 10.4688 11.3244 11.7679 11.2389C16.1533 10.9284 20.5678 10.9652 24.9434 11.1101C25.4055 11.1233 25.8708 11.1959 26.3265 11.2785C28.5758 11.6814 28.6307 13.9568 28.7765 15.8723C28.9219 17.8075 28.8605 19.7527 28.5826 21.6747C28.3596 23.2661 27.933 24.6007 26.1326 24.7295C23.8768 24.898 21.6728 25.0336 19.4107 24.9904C19.4108 24.9802 19.3978 24.9802 19.3914 24.9802ZM17.0032 20.9512C18.7031 19.9538 20.3706 18.973 22.0608 17.9823C20.3577 16.9849 18.6934 16.0041 17.0032 15.0133V20.9512Z" fill="black"/>
</svg>
